<svg width="175" height="36" viewBox="0 0 175 36" fill="none" xmlns="http://www.w3.org/2000/svg">
<path d="M12.692 29.2339C9.01867 29.2339 6.09267 28.4486 3.914 26.8779C1.76067 25.2819 0.646 23.0019 0.57 20.0379H7.334C7.61267 22.6219 9.386 23.9139 12.654 23.9139C13.87 23.9139 14.896 23.6859 15.732 23.2299C16.5933 22.7486 17.024 22.0266 17.024 21.0639C17.024 20.4052 16.758 19.8606 16.226 19.4299C15.694 18.9739 15.1493 18.6572 14.592 18.4799C14.06 18.3026 13.034 18.0239 11.514 17.6439C11.438 17.6186 11.3873 17.6059 11.362 17.6059C11.3367 17.5806 11.2987 17.5679 11.248 17.5679C11.1973 17.5426 11.1467 17.5299 11.096 17.5299C9.93067 17.2512 8.968 17.0106 8.208 16.8079C7.47333 16.5799 6.62467 16.2506 5.662 15.8199C4.72467 15.3639 3.97733 14.8699 3.42 14.3379C2.86267 13.8059 2.38133 13.1092 1.976 12.2479C1.596 11.3612 1.406 10.3732 1.406 9.28389C1.406 6.49722 2.394 4.40722 4.37 3.01389C6.37133 1.62056 8.98067 0.923889 12.198 0.923889C15.2887 0.923889 17.8093 1.63322 19.76 3.05189C21.736 4.47056 22.7873 6.54789 22.914 9.28389H16.34C16.2133 8.24522 15.77 7.44722 15.01 6.88989C14.25 6.30722 13.2367 6.01589 11.97 6.01589C10.8047 6.01589 9.85467 6.25656 9.12 6.73789C8.41067 7.19389 8.056 7.80189 8.056 8.56189C8.056 9.42322 8.48667 10.0566 9.348 10.4619C10.2093 10.8419 11.8307 11.2979 14.212 11.8299C15.7067 12.1846 16.9353 12.5392 17.898 12.8939C18.8607 13.2232 19.836 13.7046 20.824 14.3379C21.8373 14.9712 22.5847 15.7946 23.066 16.8079C23.5727 17.7959 23.826 18.9866 23.826 20.3799C23.826 23.1412 22.7747 25.3072 20.672 26.8779C18.5947 28.4486 15.9347 29.2339 12.692 29.2339ZM26.1968 28.5879V9.13189H32.1628V11.7919H32.2768C33.7715 9.63856 35.7728 8.56189 38.2808 8.56189C40.3835 8.56189 42.0302 9.24589 43.2208 10.6139C44.4368 11.9566 45.0448 13.7299 45.0448 15.9339V28.5879H38.8508V17.1879C38.8508 16.1239 38.5848 15.2879 38.0528 14.6799C37.5462 14.0466 36.7988 13.7299 35.8108 13.7299C34.7975 13.7299 33.9742 14.1099 33.3408 14.8699C32.7075 15.6299 32.3908 16.6179 32.3908 17.8339V28.5879H26.1968ZM53.6067 29.0819C51.6054 29.0819 49.9967 28.5626 48.7807 27.5239C47.5647 26.4852 46.9567 25.0286 46.9567 23.1539C46.9567 21.1779 47.6154 19.7466 48.9327 18.8599C50.2501 17.9479 52.0741 17.3399 54.4047 17.0359C56.3047 16.8079 57.5967 16.5546 58.2807 16.2759C58.9901 15.9719 59.3447 15.5032 59.3447 14.8699C59.3447 13.4766 58.4581 12.7799 56.6847 12.7799C54.7847 12.7799 53.7334 13.6159 53.5307 15.2879H47.8307C47.9067 13.3626 48.6921 11.7666 50.1867 10.4999C51.7067 9.23322 53.8601 8.59989 56.6467 8.59989C59.4334 8.59989 61.5361 9.13189 62.9547 10.1959C64.6014 11.3866 65.4247 13.2359 65.4247 15.7439V25.5479C65.4247 27.0932 65.6527 28.0179 66.1087 28.3219V28.5879H60.1047C59.8514 28.2332 59.6361 27.5112 59.4587 26.4219H59.3827C58.1414 28.1952 56.2161 29.0819 53.6067 29.0819ZM55.5827 25.1299C56.7481 25.1299 57.6854 24.8132 58.3947 24.1799C59.1294 23.5212 59.4967 22.6726 59.4967 21.6339V19.3159C58.8887 19.6199 57.8247 19.9619 56.3047 20.3419C55.0634 20.6206 54.1894 20.9499 53.6827 21.3299C53.1761 21.7099 52.9227 22.2546 52.9227 22.9639C52.9227 24.4079 53.8094 25.1299 55.5827 25.1299ZM68.4273 35.0099V9.13189H74.3553V11.4879H74.4693C75.964 9.53722 77.9273 8.56189 80.3593 8.56189C82.8926 8.56189 84.9066 9.53722 86.4013 11.4879C87.9213 13.4132 88.6813 15.8706 88.6813 18.8599C88.6813 22.0012 87.9086 24.5092 86.3633 26.3839C84.818 28.2586 82.766 29.1959 80.2073 29.1959C77.826 29.1959 75.9893 28.3219 74.6973 26.5739H74.6213V35.0099H68.4273ZM78.6113 24.4079C79.802 24.4079 80.7266 23.9392 81.3853 23.0019C82.0693 22.0392 82.4113 20.7346 82.4113 19.0879C82.4113 17.3652 82.082 16.0099 81.4233 15.0219C80.7646 14.0339 79.7893 13.5399 78.4973 13.5399C77.2053 13.5399 76.2046 14.0592 75.4953 15.0979C74.786 16.1112 74.4313 17.4412 74.4313 19.0879C74.4313 20.6839 74.7986 21.9759 75.5333 22.9639C76.268 23.9266 77.294 24.4079 78.6113 24.4079Z" fill="#0057FF"/>
<path d="M91.1472 28.5879V1.41789H111.363V7.07989H97.8732V12.5899H109.159V18.0239H97.8732V28.5879H91.1472ZM114.007 28.5879V1.41789H120.733V22.8879H132.931V28.5879H114.007ZM144.427 29.1579C141.286 29.1579 138.765 28.1952 136.865 26.2699C134.991 24.3192 134.053 21.8366 134.053 18.8219C134.053 15.8832 134.978 13.4386 136.827 11.4879C138.702 9.53722 141.109 8.56189 144.047 8.56189C146.707 8.56189 148.924 9.37256 150.697 10.9939C153.028 13.1219 154.168 16.2759 154.117 20.4559H140.133C140.336 21.7986 140.805 22.8499 141.539 23.6099C142.274 24.3446 143.262 24.7119 144.503 24.7119C146.099 24.7119 147.176 24.0659 147.733 22.7739H153.775C153.319 24.6486 152.23 26.1812 150.507 27.3719C148.81 28.5626 146.783 29.1579 144.427 29.1579ZM140.171 16.7699H147.847C147.746 15.6046 147.353 14.6799 146.669 13.9959C146.011 13.3119 145.175 12.9699 144.161 12.9699C141.957 12.9699 140.627 14.2366 140.171 16.7699ZM153.639 28.5879L160.403 18.3659L154.285 9.13189H161.353L164.241 14.1479H164.317L167.053 9.13189H173.551L167.775 18.2899L174.387 28.5879H167.205L164.013 22.7739H163.937L160.403 28.5879H153.639Z" fill="#586380"/>
</svg>
