<svg width="174" height="35" viewBox="0 0 174 35" fill="none" xmlns="http://www.w3.org/2000/svg">
<path d="M12.192 28.3484C8.51867 28.3484 5.59267 27.5631 3.414 25.9924C1.26067 24.3964 0.146 22.1164 0.07 19.1524H6.834C7.11267 21.7364 8.886 23.0284 12.154 23.0284C13.37 23.0284 14.396 22.8004 15.232 22.3444C16.0933 21.8631 16.524 21.1411 16.524 20.1784C16.524 19.5197 16.258 18.9751 15.726 18.5444C15.194 18.0884 14.6493 17.7717 14.092 17.5944C13.56 17.4171 12.534 17.1384 11.014 16.7584C10.938 16.7331 10.8873 16.7204 10.862 16.7204C10.8367 16.6951 10.7987 16.6824 10.748 16.6824C10.6973 16.6571 10.6467 16.6444 10.596 16.6444C9.43067 16.3657 8.468 16.1251 7.708 15.9224C6.97333 15.6944 6.12467 15.3651 5.162 14.9344C4.22467 14.4784 3.47733 13.9844 2.92 13.4524C2.36267 12.9204 1.88133 12.2237 1.476 11.3624C1.096 10.4757 0.906 9.48772 0.906 8.39839C0.906 5.61172 1.894 3.52172 3.87 2.12839C5.87133 0.735058 8.48067 0.0383909 11.698 0.0383909C14.7887 0.0383909 17.3093 0.747724 19.26 2.16639C21.236 3.58506 22.2873 5.66239 22.414 8.39839H15.84C15.7133 7.35973 15.27 6.56172 14.51 6.00439C13.75 5.42172 12.7367 5.13039 11.47 5.13039C10.3047 5.13039 9.35467 5.37106 8.62 5.85239C7.91067 6.30839 7.556 6.91639 7.556 7.67639C7.556 8.53773 7.98667 9.17106 8.848 9.57639C9.70933 9.95639 11.3307 10.4124 13.712 10.9444C15.2067 11.2991 16.4353 11.6537 17.398 12.0084C18.3607 12.3377 19.336 12.8191 20.324 13.4524C21.3373 14.0857 22.0847 14.9091 22.566 15.9224C23.0727 16.9104 23.326 18.1011 23.326 19.4944C23.326 22.2557 22.2747 24.4217 20.172 25.9924C18.0947 27.5631 15.4347 28.3484 12.192 28.3484ZM25.6968 27.7024V8.24639H31.6628V10.9064H31.7768C33.2715 8.75306 35.2728 7.67639 37.7808 7.67639C39.8835 7.67639 41.5302 8.36039 42.7208 9.72839C43.9368 11.0711 44.5448 12.8444 44.5448 15.0484V27.7024H38.3508V16.3024C38.3508 15.2384 38.0848 14.4024 37.5528 13.7944C37.0462 13.1611 36.2988 12.8444 35.3108 12.8444C34.2975 12.8444 33.4742 13.2244 32.8408 13.9844C32.2075 14.7444 31.8908 15.7324 31.8908 16.9484V27.7024H25.6968ZM53.1067 28.1964C51.1054 28.1964 49.4967 27.6771 48.2807 26.6384C47.0647 25.5997 46.4567 24.1431 46.4567 22.2684C46.4567 20.2924 47.1154 18.8611 48.4327 17.9744C49.7501 17.0624 51.5741 16.4544 53.9047 16.1504C55.8047 15.9224 57.0967 15.6691 57.7807 15.3904C58.4901 15.0864 58.8447 14.6177 58.8447 13.9844C58.8447 12.5911 57.9581 11.8944 56.1847 11.8944C54.2847 11.8944 53.2334 12.7304 53.0307 14.4024H47.3307C47.4067 12.4771 48.1921 10.8811 49.6867 9.61439C51.2067 8.34773 53.3601 7.71439 56.1467 7.71439C58.9334 7.71439 61.0361 8.24639 62.4547 9.31039C64.1014 10.5011 64.9247 12.3504 64.9247 14.8584V24.6624C64.9247 26.2077 65.1527 27.1324 65.6087 27.4364V27.7024H59.6047C59.3514 27.3477 59.1361 26.6257 58.9587 25.5364H58.8827C57.6414 27.3097 55.7161 28.1964 53.1067 28.1964ZM55.0827 24.2444C56.2481 24.2444 57.1854 23.9277 57.8947 23.2944C58.6294 22.6357 58.9967 21.7871 58.9967 20.7484V18.4304C58.3887 18.7344 57.3247 19.0764 55.8047 19.4564C54.5634 19.7351 53.6894 20.0644 53.1827 20.4444C52.6761 20.8244 52.4227 21.3691 52.4227 22.0784C52.4227 23.5224 53.3094 24.2444 55.0827 24.2444ZM67.9273 34.1244V8.24639H73.8553V10.6024H73.9693C75.464 8.65173 77.4273 7.67639 79.8593 7.67639C82.3926 7.67639 84.4066 8.65173 85.9013 10.6024C87.4213 12.5277 88.1813 14.9851 88.1813 17.9744C88.1813 21.1157 87.4086 23.6237 85.8633 25.4984C84.318 27.3731 82.266 28.3104 79.7073 28.3104C77.326 28.3104 75.4893 27.4364 74.1973 25.6884H74.1213V34.1244H67.9273ZM78.1113 23.5224C79.302 23.5224 80.2266 23.0537 80.8853 22.1164C81.5693 21.1537 81.9113 19.8491 81.9113 18.2024C81.9113 16.4797 81.582 15.1244 80.9233 14.1364C80.2646 13.1484 79.2893 12.6544 77.9973 12.6544C76.7053 12.6544 75.7046 13.1737 74.9953 14.2124C74.286 15.2257 73.9313 16.5557 73.9313 18.2024C73.9313 19.7984 74.2986 21.0904 75.0333 22.0784C75.768 23.0411 76.794 23.5224 78.1113 23.5224ZM90.6472 27.7024V0.532391H110.863V6.19439H97.3732V11.7044H108.659V17.1384H97.3732V27.7024H90.6472ZM113.507 27.7024V0.532391H120.233V22.0024H132.431V27.7024H113.507ZM143.927 28.2724C140.786 28.2724 138.265 27.3097 136.365 25.3844C134.491 23.4337 133.553 20.9511 133.553 17.9364C133.553 14.9977 134.478 12.5531 136.327 10.6024C138.202 8.65173 140.609 7.67639 143.547 7.67639C146.207 7.67639 148.424 8.48706 150.197 10.1084C152.528 12.2364 153.668 15.3904 153.617 19.5704H139.633C139.836 20.9131 140.305 21.9644 141.039 22.7244C141.774 23.4591 142.762 23.8264 144.003 23.8264C145.599 23.8264 146.676 23.1804 147.233 21.8884H153.275C152.819 23.7631 151.73 25.2957 150.007 26.4864C148.31 27.6771 146.283 28.2724 143.927 28.2724ZM139.671 15.8844H147.347C147.246 14.7191 146.853 13.7944 146.169 13.1104C145.511 12.4264 144.675 12.0844 143.661 12.0844C141.457 12.0844 140.127 13.3511 139.671 15.8844ZM153.139 27.7024L159.903 17.4804L153.785 8.24639H160.853L163.741 13.2624H163.817L166.553 8.24639H173.051L167.275 17.4044L173.887 27.7024H166.705L163.513 21.8884H163.437L159.903 27.7024H153.139Z" fill="white"/>
</svg>
